# Blender v2.92.0 OBJ File: ''
# www.blender.org
mtllib bob.mtl
o Cube
v 3.888263 2.706525 -1.000000
v 3.888263 -2.706525 -1.000000
v 3.368264 1.634706 3.498494
v 3.888263 -2.706525 1.000000
v -3.888263 2.706525 -1.000000
v -3.888263 -2.706525 -1.000000
v -3.888263 6.076132 1.000000
v -3.888263 -2.706525 1.000000
v 5.648462 -1.189290 0.737963
v 3.888263 -2.706525 -0.330799
vt 0.625000 0.500000
vt 0.875000 0.500000
vt 0.875000 0.750000
vt 0.625000 0.750000
vt 0.625000 0.615089
vt 0.375000 0.750000
vt 0.625000 1.000000
vt 0.375000 1.000000
vt 0.375000 0.000000
vt 0.625000 0.000000
vt 0.625000 0.250000
vt 0.375000 0.250000
vt 0.125000 0.500000
vt 0.375000 0.500000
vt 0.375000 0.583650
vt 0.125000 0.750000
vn 0.4841 0.8565 -0.1792
vn -0.2156 -0.1909 0.9577
vn -1.0000 0.0000 0.0000
vn 0.0000 -1.0000 0.0000
vn 0.7355 -0.0831 -0.6724
vn 0.0000 0.0000 -1.0000
vn 0.5442 -0.5173 0.6604
usemtl Material
s off
f 1/1/1 5/2/1 7/3/1 3/4/1 9/5/1
f 4/6/2 3/4/2 7/7/2 8/8/2
f 8/9/3 7/10/3 5/11/3 6/12/3
f 6/13/4 2/14/4 10/15/4 4/6/4 8/16/4
f 2/14/5 1/1/5 9/5/5 10/15/5
f 6/12/6 5/11/6 1/1/6 2/14/6
f 10/15/7 9/5/7 3/4/7 4/6/7
