# Blender v2.92.0 OBJ File: ''
# www.blender.org
mtllib bobbob.mtl
o Cube
v 8.148233 5.671787 -2.095598
v 8.148233 -5.671787 -2.095598
v 7.058527 3.425685 7.331435
v 8.148233 -5.671787 2.095598
v -8.148233 5.671787 -2.095598
v -8.148233 -5.671787 -2.095598
v -8.148233 12.733129 2.095598
v -8.148233 -5.671787 2.095598
v 11.836902 -2.492274 1.546473
v 8.148233 -5.671787 -0.693222
vt 0.625000 0.500000
vt 0.875000 0.500000
vt 0.875000 0.750000
vt 0.625000 0.750000
vt 0.625000 0.615089
vt 0.375000 0.750000
vt 0.625000 1.000000
vt 0.375000 1.000000
vt 0.375000 0.000000
vt 0.625000 0.000000
vt 0.625000 0.250000
vt 0.375000 0.250000
vt 0.125000 0.500000
vt 0.375000 0.500000
vt 0.375000 0.583650
vt 0.125000 0.750000
vn 0.4841 0.8565 -0.1792
vn -0.2156 -0.1909 0.9577
vn -1.0000 0.0000 0.0000
vn 0.0000 -1.0000 0.0000
vn 0.7355 -0.0831 -0.6724
vn 0.0000 0.0000 -1.0000
vn 0.5442 -0.5173 0.6604
usemtl Material
s off
f 1/1/1 5/2/1 7/3/1 3/4/1 9/5/1
f 4/6/2 3/4/2 7/7/2 8/8/2
f 8/9/3 7/10/3 5/11/3 6/12/3
f 6/13/4 2/14/4 10/15/4 4/6/4 8/16/4
f 2/14/5 1/1/5 9/5/5 10/15/5
f 6/12/6 5/11/6 1/1/6 2/14/6
f 10/15/7 9/5/7 3/4/7 4/6/7
o Cube.001
v 2.115336 1.435617 -6.309169
v 2.115336 -3.977433 -6.309169
v 1.595338 0.363798 -1.810675
v 2.115336 -3.977433 -4.309169
v -5.661189 1.435617 -6.309169
v -5.661189 -3.977433 -6.309169
v -5.661189 4.805224 -4.309169
v -5.661189 -3.977433 -4.309169
v 3.875535 -2.460199 -4.571206
v 2.115336 -3.977433 -5.639968
vt 0.625000 0.500000
vt 0.875000 0.500000
vt 0.875000 0.750000
vt 0.625000 0.750000
vt 0.625000 0.615089
vt 0.375000 0.750000
vt 0.625000 1.000000
vt 0.375000 1.000000
vt 0.375000 0.000000
vt 0.625000 0.000000
vt 0.625000 0.250000
vt 0.375000 0.250000
vt 0.125000 0.500000
vt 0.375000 0.500000
vt 0.375000 0.583650
vt 0.125000 0.750000
vn 0.4841 0.8565 -0.1792
vn -0.2156 -0.1909 0.9577
vn -1.0000 0.0000 0.0000
vn 0.0000 -1.0000 0.0000
vn 0.7355 -0.0831 -0.6724
vn 0.0000 0.0000 -1.0000
vn 0.5442 -0.5173 0.6604
usemtl Material
s off
f 11/17/8 15/18/8 17/19/8 13/20/8 19/21/8
f 14/22/9 13/20/9 17/23/9 18/24/9
f 18/25/10 17/26/10 15/27/10 16/28/10
f 16/29/11 12/30/11 20/31/11 14/22/11 18/32/11
f 12/30/12 11/17/12 19/21/12 20/31/12
f 16/28/13 15/27/13 11/17/13 12/30/13
f 20/31/14 19/21/14 13/20/14 14/22/14
