# Blender v2.92.0 OBJ File: ''
# www.blender.org
mtllib cubes.mtl
o Cube_Cube.005
v -4.227808 0.000000 0.369261
v -4.227808 4.972098 0.369261
v -4.227808 0.000000 -4.709417
v -4.227808 4.972098 -4.709417
v 2.254469 0.000000 0.369261
v 2.254469 4.972098 0.369261
v 2.254469 0.000000 -4.709417
v 2.254469 4.972098 -4.709417
vt 0.375000 0.000000
vt 0.625000 0.000000
vt 0.625000 0.250000
vt 0.375000 0.250000
vt 0.625000 0.500000
vt 0.375000 0.500000
vt 0.625000 0.750000
vt 0.375000 0.750000
vt 0.625000 1.000000
vt 0.375000 1.000000
vt 0.125000 0.500000
vt 0.125000 0.750000
vt 0.875000 0.500000
vt 0.875000 0.750000
vn -1.0000 0.0000 0.0000
vn 0.0000 0.0000 -1.0000
vn 1.0000 0.0000 0.0000
vn 0.0000 0.0000 1.0000
vn 0.0000 -1.0000 0.0000
vn 0.0000 1.0000 0.0000
usemtl None
s off
f 1/1/1 2/2/1 4/3/1 3/4/1
f 3/4/2 4/3/2 8/5/2 7/6/2
f 7/6/3 8/5/3 6/7/3 5/8/3
f 5/8/4 6/7/4 2/9/4 1/10/4
f 3/11/5 7/6/5 5/8/5 1/12/5
f 8/5/6 4/13/6 2/14/6 6/7/6
o Cube.001_Cube.006
v 10.387063 0.000000 0.519478
v 10.387063 -4.073801 0.519477
v 10.387063 -0.000000 4.322215
v 10.387063 -4.073801 4.322214
v 14.951409 0.000000 0.519478
v 14.951409 -4.073801 0.519477
v 14.951409 -0.000000 4.322215
v 14.951409 -4.073801 4.322214
vt 0.375000 0.000000
vt 0.625000 0.000000
vt 0.625000 0.250000
vt 0.375000 0.250000
vt 0.625000 0.500000
vt 0.375000 0.500000
vt 0.625000 0.750000
vt 0.375000 0.750000
vt 0.625000 1.000000
vt 0.375000 1.000000
vt 0.125000 0.500000
vt 0.125000 0.750000
vt 0.875000 0.500000
vt 0.875000 0.750000
vn -1.0000 -0.0000 0.0000
vn 0.0000 -0.0000 1.0000
vn 1.0000 0.0000 0.0000
vn 0.0000 0.0000 -1.0000
vn 0.0000 1.0000 0.0000
vn 0.0000 -1.0000 -0.0000
usemtl None
s off
f 9/15/7 10/16/7 12/17/7 11/18/7
f 11/18/8 12/17/8 16/19/8 15/20/8
f 15/20/9 16/19/9 14/21/9 13/22/9
f 13/22/10 14/21/10 10/23/10 9/24/10
f 11/25/11 15/20/11 13/22/11 9/26/11
f 16/19/12 12/27/12 10/28/12 14/21/12
o Cube.002_Cube.007
v 7.961642 7.651456 4.434210
v 7.961642 3.577655 4.434209
v 7.961642 7.651455 8.236946
v 7.961642 3.577655 8.236946
v 7.580622 7.651456 4.434210
v 7.580622 3.577655 4.434209
v 7.580622 7.651455 8.236946
v 7.580622 3.577655 8.236946
vt 0.375000 0.000000
vt 0.375000 0.250000
vt 0.625000 0.250000
vt 0.625000 0.000000
vt 0.375000 0.500000
vt 0.625000 0.500000
vt 0.375000 0.750000
vt 0.625000 0.750000
vt 0.375000 1.000000
vt 0.625000 1.000000
vt 0.125000 0.500000
vt 0.125000 0.750000
vt 0.875000 0.750000
vt 0.875000 0.500000
vn 1.0000 0.0000 0.0000
vn 0.0000 0.0000 1.0000
vn -1.0000 0.0000 0.0000
vn 0.0000 0.0000 -1.0000
vn 0.0000 1.0000 0.0000
vn 0.0000 -1.0000 -0.0000
usemtl None
s off
f 17/29/13 19/30/13 20/31/13 18/32/13
f 19/30/14 23/33/14 24/34/14 20/31/14
f 23/33/15 21/35/15 22/36/15 24/34/15
f 21/35/16 17/37/16 18/38/16 22/36/16
f 19/39/17 17/40/17 21/35/17 23/33/17
f 24/34/18 22/36/18 18/41/18 20/42/18
o Cone_Cone.004
v 10.387062 -25.613724 10.468215
v 10.387062 -25.406292 8.529932
v 10.387062 -24.791975 6.666137
v 10.387062 -23.794378 4.948452
v 10.387062 -22.451839 3.442891
v 10.387062 -20.815950 2.207307
v 10.387062 -18.949577 1.289186
v 10.387062 -16.924446 0.723811
v 10.387062 -14.818380 0.532907
v 10.387062 -12.712315 0.723810
v 10.387062 -10.687183 1.289187
v 10.387062 -8.820810 2.207309
v 10.387062 -7.184921 3.442893
v 10.387062 -5.842381 4.948456
v 10.387062 -4.844785 6.666142
v 10.387062 -4.230469 8.529938
v 10.387062 -4.023040 10.468222
v 10.387062 -4.230471 12.406506
v 10.387062 -4.844790 14.270302
v 10.387062 -5.842387 15.987986
v 10.387062 -7.184928 17.493547
v 10.387062 -8.820818 18.729130
v 10.387062 -10.687193 19.647251
v 10.387062 -12.712326 20.212624
v 10.387062 -14.818394 20.403526
v 10.387062 -16.924461 20.212620
v 10.387062 -18.949593 19.647242
v 10.387062 -20.815964 18.729118
v 10.387062 -22.451851 17.493532
v 10.387062 -23.794388 15.987967
v 10.387062 -24.791985 14.270281
v 10.387062 -25.406296 12.406484
v -25.185638 -14.818383 10.468219
vt 0.250000 0.490000
vt 0.250000 0.250000
vt 0.296822 0.485388
vt 0.341844 0.471731
vt 0.383337 0.449553
vt 0.419706 0.419706
vt 0.449553 0.383337
vt 0.471731 0.341844
vt 0.485388 0.296822
vt 0.490000 0.250000
vt 0.485388 0.203178
vt 0.471731 0.158156
vt 0.449553 0.116663
vt 0.419706 0.080294
vt 0.383337 0.050447
vt 0.341844 0.028269
vt 0.296822 0.014612
vt 0.250000 0.010000
vt 0.203178 0.014612
vt 0.158156 0.028269
vt 0.116663 0.050447
vt 0.080294 0.080294
vt 0.050447 0.116663
vt 0.028269 0.158156
vt 0.014611 0.203179
vt 0.010000 0.250000
vt 0.014612 0.296822
vt 0.028269 0.341844
vt 0.050447 0.383337
vt 0.080295 0.419706
vt 0.116663 0.449553
vt 0.158156 0.471731
vt 0.750000 0.490000
vt 0.796822 0.485388
vt 0.841844 0.471731
vt 0.883337 0.449553
vt 0.919706 0.419706
vt 0.949553 0.383337
vt 0.971731 0.341844
vt 0.985388 0.296822
vt 0.990000 0.250000
vt 0.985388 0.203178
vt 0.971731 0.158156
vt 0.949553 0.116663
vt 0.919706 0.080294
vt 0.883337 0.050447
vt 0.841844 0.028269
vt 0.796822 0.014612
vt 0.750000 0.010000
vt 0.703178 0.014612
vt 0.658156 0.028269
vt 0.616663 0.050447
vt 0.580294 0.080294
vt 0.550447 0.116663
vt 0.528269 0.158156
vt 0.514611 0.203179
vt 0.510000 0.250000
vt 0.514612 0.296822
vt 0.528269 0.341844
vt 0.550447 0.383337
vt 0.580295 0.419706
vt 0.616663 0.449553
vt 0.658156 0.471731
vt 0.703179 0.485389
vt 0.203179 0.485389
vn -0.2889 -0.9519 -0.1019
vn -0.2871 -0.9098 -0.2999
vn -0.2839 -0.8291 -0.4816
vn -0.2799 -0.7165 -0.6389
vn -0.2758 -0.5793 -0.7670
vn -0.2721 -0.4248 -0.8634
vn -0.2694 -0.2590 -0.9276
vn -0.2680 -0.0870 -0.9595
vn -0.2680 0.0870 -0.9595
vn -0.2694 0.2590 -0.9276
vn -0.2721 0.4248 -0.8634
vn -0.2758 0.5793 -0.7670
vn -0.2799 0.7165 -0.6389
vn -0.2839 0.8291 -0.4816
vn -0.2871 0.9098 -0.2999
vn -0.2889 0.9519 -0.1019
vn -0.2889 0.9519 0.1019
vn -0.2871 0.9098 0.2999
vn -0.2839 0.8291 0.4816
vn -0.2799 0.7165 0.6389
vn -0.2758 0.5793 0.7670
vn -0.2721 0.4248 0.8634
vn -0.2694 0.2590 0.9276
vn -0.2680 0.0870 0.9595
vn -0.2680 -0.0870 0.9595
vn -0.2694 -0.2590 0.9276
vn -0.2721 -0.4248 0.8634
vn -0.2758 -0.5793 0.7670
vn -0.2799 -0.7165 0.6389
vn -0.2839 -0.8291 0.4816
vn 1.0000 0.0000 0.0000
vn -0.2871 -0.9098 0.2999
vn -0.2889 -0.9519 0.1019
usemtl None
s off
f 25/43/19 57/44/19 26/45/19
f 26/45/20 57/44/20 27/46/20
f 27/46/21 57/44/21 28/47/21
f 28/47/22 57/44/22 29/48/22
f 29/48/23 57/44/23 30/49/23
f 30/49/24 57/44/24 31/50/24
f 31/50/25 57/44/25 32/51/25
f 32/51/26 57/44/26 33/52/26
f 33/52/27 57/44/27 34/53/27
f 34/53/28 57/44/28 35/54/28
f 35/54/29 57/44/29 36/55/29
f 36/55/30 57/44/30 37/56/30
f 37/56/31 57/44/31 38/57/31
f 38/57/32 57/44/32 39/58/32
f 39/58/33 57/44/33 40/59/33
f 40/59/34 57/44/34 41/60/34
f 41/60/35 57/44/35 42/61/35
f 42/61/36 57/44/36 43/62/36
f 43/62/37 57/44/37 44/63/37
f 44/63/38 57/44/38 45/64/38
f 45/64/39 57/44/39 46/65/39
f 46/65/40 57/44/40 47/66/40
f 47/66/41 57/44/41 48/67/41
f 48/67/42 57/44/42 49/68/42
f 49/68/43 57/44/43 50/69/43
f 50/69/44 57/44/44 51/70/44
f 51/70/45 57/44/45 52/71/45
f 52/71/46 57/44/46 53/72/46
f 53/72/47 57/44/47 54/73/47
f 54/73/48 57/44/48 55/74/48
f 25/75/49 26/76/49 27/77/49 28/78/49 29/79/49 30/80/49 31/81/49 32/82/49 33/83/49 34/84/49 35/85/49 36/86/49 37/87/49 38/88/49 39/89/49 40/90/49 41/91/49 42/92/49 43/93/49 44/94/49 45/95/49 46/96/49 47/97/49 48/98/49 49/99/49 50/100/49 51/101/49 52/102/49 53/103/49 54/104/49 55/105/49 56/106/49
f 55/74/50 57/44/50 56/107/50
f 56/107/51 57/44/51 25/43/51
o Cone.001_Cone.005
v -3.710424 -1.643577 -2.284232
v -3.908592 -1.485583 -2.728785
v -4.003838 -1.313108 -3.204774
v -3.992500 -1.132782 -3.693908
v -3.875015 -0.951532 -4.177390
v -3.655897 -0.776325 -4.636639
v -3.343567 -0.613895 -5.054007
v -2.950027 -0.470482 -5.413454
v -2.490402 -0.351599 -5.701168
v -1.982354 -0.261813 -5.906091
v -1.445407 -0.204576 -6.020349
v -0.900196 -0.182087 -6.039551
v -0.367672 -0.195210 -5.962957
v 0.131699 -0.243440 -5.793513
v 0.578726 -0.324925 -5.537730
v 0.956232 -0.436534 -5.205438
v 1.249708 -0.573976 -4.809405
v 1.447876 -0.731970 -4.364852
v 1.543122 -0.904444 -3.888862
v 1.531784 -1.084772 -3.399728
v 1.414298 -1.266021 -2.916246
v 1.195180 -1.441227 -2.456997
v 0.882849 -1.603658 -2.039629
v 0.489309 -1.747071 -1.680182
v 0.029683 -1.865954 -1.392469
v -0.478365 -1.955739 -1.187546
v -1.015313 -2.012977 -1.073289
v -1.560524 -2.035466 -1.054088
v -2.093047 -2.022342 -1.130681
v -2.592418 -1.974112 -1.300126
v -3.039445 -1.892626 -1.555909
v -3.416950 -1.781018 -1.888202
v -1.478175 7.651710 -0.322873
vt 0.250000 0.490000
vt 0.250000 0.250000
vt 0.296822 0.485388
vt 0.341844 0.471731
vt 0.383337 0.449553
vt 0.419706 0.419706
vt 0.449553 0.383337
vt 0.471731 0.341844
vt 0.485388 0.296822
vt 0.490000 0.250000
vt 0.485388 0.203178
vt 0.471731 0.158156
vt 0.449553 0.116663
vt 0.419706 0.080294
vt 0.383337 0.050447
vt 0.341844 0.028269
vt 0.296822 0.014612
vt 0.250000 0.010000
vt 0.203178 0.014612
vt 0.158156 0.028269
vt 0.116663 0.050447
vt 0.080294 0.080294
vt 0.050447 0.116663
vt 0.028269 0.158156
vt 0.014611 0.203179
vt 0.010000 0.250000
vt 0.014612 0.296822
vt 0.028269 0.341844
vt 0.050447 0.383337
vt 0.080295 0.419706
vt 0.116663 0.449553
vt 0.158156 0.471731
vt 0.750000 0.490000
vt 0.796822 0.485388
vt 0.841844 0.471731
vt 0.883337 0.449553
vt 0.919706 0.419706
vt 0.949553 0.383337
vt 0.971731 0.341844
vt 0.985388 0.296822
vt 0.990000 0.250000
vt 0.985388 0.203178
vt 0.971731 0.158156
vt 0.949553 0.116663
vt 0.919706 0.080294
vt 0.883337 0.050447
vt 0.841844 0.028269
vt 0.796822 0.014612
vt 0.750000 0.010000
vt 0.703178 0.014612
vt 0.658156 0.028269
vt 0.616663 0.050447
vt 0.580294 0.080294
vt 0.550447 0.116663
vt 0.528269 0.158156
vt 0.514611 0.203179
vt 0.510000 0.250000
vt 0.514612 0.296822
vt 0.528269 0.341844
vt 0.550447 0.383337
vt 0.580295 0.419706
vt 0.616663 0.449553
vt 0.658156 0.471731
vt 0.703179 0.485389
vt 0.203179 0.485389
vn -0.8900 0.1209 0.4397
vn -0.9487 0.1847 0.2568
vn -0.9658 0.2497 0.0697
vn -0.9432 0.3129 -0.1119
vn -0.8849 0.3721 -0.2802
vn -0.7961 0.4258 -0.4300
vn -0.6819 0.4732 -0.5578
vn -0.5468 0.5135 -0.6613
vn -0.3946 0.5464 -0.7388
vn -0.2287 0.5709 -0.7885
vn -0.0527 0.5861 -0.8085
vn 0.1291 0.5907 -0.7965
vn 0.3109 0.5833 -0.7504
vn 0.4854 0.5627 -0.6692
vn 0.6437 0.5281 -0.5539
vn 0.7762 0.4802 -0.4085
vn 0.8746 0.4211 -0.2402
vn 0.9334 0.3540 -0.0585
vn 0.9507 0.2830 0.1264
vn 0.9283 0.2123 0.3052
vn 0.8702 0.1454 0.4707
vn 0.7816 0.0848 0.6179
vn 0.6676 0.0323 0.7438
vn 0.5326 -0.0107 0.8463
vn 0.3803 -0.0436 0.9238
vn 0.2143 -0.0654 0.9746
vn 0.0382 -0.0755 0.9964
vn -0.1438 -0.0733 0.9869
vn -0.3258 -0.0581 0.9437
vn -0.5005 -0.0299 0.8652
vn 0.0265 -0.9381 -0.3452
vn -0.6589 0.0106 0.7521
vn -0.7915 0.0618 0.6080
usemtl None
s off
f 58/108/52 90/109/52 59/110/52
f 59/110/53 90/109/53 60/111/53
f 60/111/54 90/109/54 61/112/54
f 61/112/55 90/109/55 62/113/55
f 62/113/56 90/109/56 63/114/56
f 63/114/57 90/109/57 64/115/57
f 64/115/58 90/109/58 65/116/58
f 65/116/59 90/109/59 66/117/59
f 66/117/60 90/109/60 67/118/60
f 67/118/61 90/109/61 68/119/61
f 68/119/62 90/109/62 69/120/62
f 69/120/63 90/109/63 70/121/63
f 70/121/64 90/109/64 71/122/64
f 71/122/65 90/109/65 72/123/65
f 72/123/66 90/109/66 73/124/66
f 73/124/67 90/109/67 74/125/67
f 74/125/68 90/109/68 75/126/68
f 75/126/69 90/109/69 76/127/69
f 76/127/70 90/109/70 77/128/70
f 77/128/71 90/109/71 78/129/71
f 78/129/72 90/109/72 79/130/72
f 79/130/73 90/109/73 80/131/73
f 80/131/74 90/109/74 81/132/74
f 81/132/75 90/109/75 82/133/75
f 82/133/76 90/109/76 83/134/76
f 83/134/77 90/109/77 84/135/77
f 84/135/78 90/109/78 85/136/78
f 85/136/79 90/109/79 86/137/79
f 86/137/80 90/109/80 87/138/80
f 87/138/81 90/109/81 88/139/81
f 58/140/82 59/141/82 60/142/82 61/143/82 62/144/82 63/145/82 64/146/82 65/147/82 66/148/82 67/149/82 68/150/82 69/151/82 70/152/82 71/153/82 72/154/82 73/155/82 74/156/82 75/157/82 76/158/82 77/159/82 78/160/82 79/161/82 80/162/82 81/163/82 82/164/82 83/165/82 84/166/82 85/167/82 86/168/82 87/169/82 88/170/82 89/171/82
f 88/139/83 90/109/83 89/172/83
f 89/172/84 90/109/84 58/108/84
